<svg width="158" height="41" viewBox="0 0 158 41" fill="none" xmlns="http://www.w3.org/2000/svg">
<circle cx="20.3425" cy="20.3425" r="20.3425" fill="#FFE8C9"/>
<path d="M16.2591 17.815L11.0841 19.75L16.2591 21.685V23.245L9.34414 20.56V18.94L16.2591 16.255V17.815ZM21.7168 12.37H23.3968L18.4468 26.5H16.7668L21.7168 12.37ZM30.6732 18.94V20.56L23.7582 23.245V21.685L28.9332 19.75L23.7582 17.815V16.255L30.6732 18.94Z" fill="#F14016"/>
<path d="M70.0498 13V21.34C70.0498 23.26 69.5564 24.72 68.5698 25.72C67.5964 26.7067 66.1964 27.2 64.3698 27.2C63.3831 27.2 62.5031 27.0467 61.7298 26.74C60.9698 26.42 60.3631 25.9867 59.9098 25.44C59.4431 25.9867 58.8298 26.42 58.0698 26.74C57.3231 27.0467 56.4564 27.2 55.4698 27.2C53.6431 27.2 52.2364 26.7 51.2498 25.7C50.2631 24.7 49.7698 23.2467 49.7698 21.34V13H52.3698V21.26C52.3698 22.5267 52.6298 23.4533 53.1498 24.04C53.6831 24.6267 54.4564 24.92 55.4698 24.92C57.5631 24.92 58.6098 23.7 58.6098 21.26V13H61.2098V21.26C61.2098 23.7 62.2631 24.92 64.3698 24.92C66.4364 24.92 67.4698 23.7 67.4698 21.26V13H70.0498ZM78.5579 25.02C79.7179 25.02 80.6846 24.6333 81.4579 23.86L82.7779 25.4C82.3112 25.9733 81.7112 26.4067 80.9779 26.7C80.2446 26.9933 79.4179 27.14 78.4979 27.14C77.3246 27.14 76.2912 26.9067 75.3979 26.44C74.5046 25.9733 73.8112 25.3267 73.3179 24.5C72.8379 23.66 72.5979 22.7133 72.5979 21.66C72.5979 20.62 72.8312 19.6867 73.2979 18.86C73.7779 18.02 74.4312 17.3667 75.2579 16.9C76.0979 16.4333 77.0446 16.2 78.0979 16.2C79.0979 16.2 80.0046 16.42 80.8179 16.86C81.6446 17.2867 82.2979 17.9067 82.7779 18.72C83.2579 19.52 83.4979 20.46 83.4979 21.54L75.3179 23.14C75.5712 23.7533 75.9779 24.22 76.5379 24.54C77.0979 24.86 77.7712 25.02 78.5579 25.02ZM78.0979 18.2C77.1779 18.2 76.4312 18.5 75.8579 19.1C75.2979 19.7 75.0179 20.5067 75.0179 21.52V21.54L81.0579 20.38C80.8846 19.7267 80.5312 19.2 79.9979 18.8C79.4779 18.4 78.8446 18.2 78.0979 18.2ZM91.8198 16.2C92.8598 16.2 93.7864 16.4267 94.5998 16.88C95.4264 17.3333 96.0731 17.9733 96.5398 18.8C97.0064 19.6267 97.2398 20.58 97.2398 21.66C97.2398 22.74 97.0064 23.7 96.5398 24.54C96.0731 25.3667 95.4264 26.0067 94.5998 26.46C93.7864 26.9133 92.8598 27.14 91.8198 27.14C91.0864 27.14 90.4131 27.0133 89.7998 26.76C89.1998 26.5067 88.6931 26.1267 88.2798 25.62V27H85.8998V12.16H88.3998V17.62C88.8264 17.1533 89.3264 16.8 89.8998 16.56C90.4864 16.32 91.1264 16.2 91.8198 16.2ZM91.5398 25C92.4598 25 93.2131 24.6933 93.7998 24.08C94.3998 23.4667 94.6998 22.66 94.6998 21.66C94.6998 20.66 94.3998 19.8533 93.7998 19.24C93.2131 18.6267 92.4598 18.32 91.5398 18.32C90.9398 18.32 90.3998 18.46 89.9198 18.74C89.4398 19.0067 89.0598 19.3933 88.7798 19.9C88.4998 20.4067 88.3598 20.9933 88.3598 21.66C88.3598 22.3267 88.4998 22.9133 88.7798 23.42C89.0598 23.9267 89.4398 24.32 89.9198 24.6C90.3998 24.8667 90.9398 25 91.5398 25ZM99.8507 13H102.451V24.8H109.771V27H99.8507V13ZM116.286 27.14C115.206 27.14 114.232 26.9067 113.366 26.44C112.499 25.9733 111.819 25.3267 111.326 24.5C110.846 23.66 110.606 22.7133 110.606 21.66C110.606 20.6067 110.846 19.6667 111.326 18.84C111.819 18.0133 112.499 17.3667 113.366 16.9C114.232 16.4333 115.206 16.2 116.286 16.2C117.379 16.2 118.359 16.4333 119.226 16.9C120.092 17.3667 120.766 18.0133 121.246 18.84C121.739 19.6667 121.986 20.6067 121.986 21.66C121.986 22.7133 121.739 23.66 121.246 24.5C120.766 25.3267 120.092 25.9733 119.226 26.44C118.359 26.9067 117.379 27.14 116.286 27.14ZM116.286 25C117.206 25 117.966 24.6933 118.566 24.08C119.166 23.4667 119.466 22.66 119.466 21.66C119.466 20.66 119.166 19.8533 118.566 19.24C117.966 18.6267 117.206 18.32 116.286 18.32C115.366 18.32 114.606 18.6267 114.006 19.24C113.419 19.8533 113.126 20.66 113.126 21.66C113.126 22.66 113.419 23.4667 114.006 24.08C114.606 24.6933 115.366 25 116.286 25ZM128.396 14.04C127.343 14.04 126.816 14.6133 126.816 15.76V16.4H129.756V18.4H126.876V27H124.376V15.72C124.376 14.5867 124.71 13.6867 125.376 13.02C126.043 12.3533 126.99 12.02 128.216 12.02C129.163 12.02 129.91 12.2133 130.456 12.6L129.756 14.48C129.356 14.1867 128.903 14.04 128.396 14.04ZM137.427 26.42C137.134 26.66 136.774 26.84 136.347 26.96C135.934 27.08 135.494 27.14 135.027 27.14C133.854 27.14 132.947 26.8333 132.307 26.22C131.667 25.6067 131.347 24.7133 131.347 23.54V13.96H133.847V16.4H136.707V18.4H133.847V23.48C133.847 24 133.974 24.4 134.227 24.68C134.494 24.9467 134.86 25.08 135.327 25.08C135.887 25.08 136.354 24.9333 136.727 24.64L137.427 26.42ZM144.222 25.02C145.382 25.02 146.349 24.6333 147.122 23.86L148.442 25.4C147.975 25.9733 147.375 26.4067 146.642 26.7C145.909 26.9933 145.082 27.14 144.162 27.14C142.989 27.14 141.955 26.9067 141.062 26.44C140.169 25.9733 139.475 25.3267 138.982 24.5C138.502 23.66 138.262 22.7133 138.262 21.66C138.262 20.62 138.495 19.6867 138.962 18.86C139.442 18.02 140.095 17.3667 140.922 16.9C141.762 16.4333 142.709 16.2 143.762 16.2C144.762 16.2 145.669 16.42 146.482 16.86C147.309 17.2867 147.962 17.9067 148.442 18.72C148.922 19.52 149.162 20.46 149.162 21.54L140.982 23.14C141.235 23.7533 141.642 24.22 142.202 24.54C142.762 24.86 143.435 25.02 144.222 25.02ZM143.762 18.2C142.842 18.2 142.095 18.5 141.522 19.1C140.962 19.7 140.682 20.5067 140.682 21.52V21.54L146.722 20.38C146.549 19.7267 146.195 19.2 145.662 18.8C145.142 18.4 144.509 18.2 143.762 18.2ZM157.564 26.42C157.27 26.66 156.91 26.84 156.484 26.96C156.07 27.08 155.63 27.14 155.164 27.14C153.99 27.14 153.084 26.8333 152.444 26.22C151.804 25.6067 151.484 24.7133 151.484 23.54V13.96H153.984V16.4H156.844V18.4H153.984V23.48C153.984 24 154.11 24.4 154.364 24.68C154.63 24.9467 154.997 25.08 155.464 25.08C156.024 25.08 156.49 24.9333 156.864 24.64L157.564 26.42Z" fill="#F14016"/>
</svg>
